<svg width="162" height="156" viewBox="0 0 162 156" fill="none" xmlns="http://www.w3.org/2000/svg">
  <path d="M149.043 117.506H66.7277C53.783 117.506 42.8298 108.437 40.5064 96.128L24.5745 4.13672H3M29.5531 30.0498H159L151.034 67.6237C148.047 81.8759 135.434 92.2411 120.83 93.2128L41.1701 98.0715M66.0641 141.8C66.0641 148.061 60.8629 153.137 54.447 153.137C48.0311 153.137 42.83 148.061 42.83 141.8C42.83 135.539 48.0311 130.463 54.447 130.463C60.8629 130.463 66.0641 135.539 66.0641 141.8ZM145.723 141.8C145.723 148.061 140.522 153.137 134.106 153.137C127.69 153.137 122.489 148.061 122.489 141.8C122.489 135.539 127.69 130.463 134.106 130.463C140.522 130.463 145.723 135.539 145.723 141.8Z" stroke="#007CC3" stroke-width="5" stroke-miterlimit="10" stroke-linecap="round" stroke-linejoin="round"/>
  <path d="M115 74.1367C115 64.7479 105.15 57.1367 93 57.1367C80.8497 57.1367 71 64.7479 71 74.1367" stroke="#007CC3" stroke-width="5" stroke-miterlimit="10" stroke-linecap="round"/>
  <circle cx="73" cy="31.1367" r="23" fill="white"/>
  <path d="M72.383 20.4628C65.9671 20.4628 60.7659 25.5385 60.7659 31.7998C60.7659 38.061 65.9671 43.1367 72.383 43.1367C78.7989 43.1367 84 38.061 84 31.7998C84 25.5385 78.7989 20.4628 72.383 20.4628Z" stroke="#007CC3" stroke-width="5" stroke-miterlimit="10"/>
  <circle cx="113" cy="31.1367" r="23" fill="white"/>
  <path d="M112.383 20.4628C105.967 20.4628 100.766 25.5385 100.766 31.7998C100.766 38.061 105.967 43.1367 112.383 43.1367C118.799 43.1367 124 38.061 124 31.7998C124 25.5385 118.799 20.4628 112.383 20.4628Z" stroke="#007CC3" stroke-width="5" stroke-miterlimit="10"/>
  <path d="M71.1927 6.40748C64.6071 3.54226 56.9464 6.5566 54.0821 13.1402" stroke="#8BD2FF" stroke-width="5" stroke-miterlimit="10" stroke-linecap="round"/>
  <path d="M128.746 11.5246C125.419 5.15982 117.563 2.6964 111.2 6.02242" stroke="#8BD2FF" stroke-width="5" stroke-miterlimit="10" stroke-linecap="round"/>
</svg>
